<svg width="17" height="9" viewBox="0 0 17 9" fill="none" xmlns="http://www.w3.org/2000/svg">
<path d="M16.7551 4.00974C16.7549 4.00955 16.7553 4.00992 16.7551 4.00974L13.489 0.762845C13.2444 0.519654 12.8487 0.520559 12.6052 0.764968C12.3617 1.00935 12.3627 1.40461 12.6073 1.64784L14.7997 3.82735H1.56459C1.21943 3.82735 0.939636 4.10684 0.939636 4.45164C0.939636 4.79643 1.21943 5.07593 1.56459 5.07593H14.7997L12.6073 7.25544C12.3627 7.49866 12.3617 7.89393 12.6052 8.13831C12.8487 8.38275 13.2445 8.38359 13.4891 8.14043L16.7546 4.89413C16.7543 4.89432 16.7547 4.89395 16.7546 4.89413C16.9993 4.6501 16.9991 4.25296 16.7551 4.00974Z" fill="#1DBFFF"/>
</svg>
