<svg width="19" height="19" viewBox="0 0 19 19" fill="none" xmlns="http://www.w3.org/2000/svg">
<path id="Vector" d="M17.78 6.40692L12.2985 1.1511C11.5557 0.415706 10.5534 0.00223197 9.50837 9.00971e-06C8.4633 -0.00221395 7.45932 0.406993 6.71333 1.13922L1.21917 6.40692C0.834903 6.77719 0.528962 7.22096 0.319524 7.71186C0.110086 8.20276 0.00142518 8.73078 0 9.26452L0 15.0399C0.00125705 16.0898 0.418698 17.0963 1.16076 17.8387C1.90282 18.5811 2.9089 18.9987 3.95833 19H15.0417C16.0911 18.9987 17.0972 18.5811 17.8392 17.8387C18.5813 17.0963 18.9987 16.0898 19 15.0399V9.26452C18.9986 8.7307 18.8899 8.20261 18.6803 7.71169C18.4707 7.22077 18.1646 6.77704 17.78 6.40692ZM7.82088 2.27101C8.26978 1.82589 8.87692 1.57721 9.50895 1.57959C10.141 1.58197 10.7462 1.8352 11.1918 2.28368L16.5332 7.40328L11.1791 12.7605C10.7265 13.1921 10.1253 13.4329 9.5 13.4329C8.87473 13.4329 8.27346 13.1921 7.82088 12.7605L2.46604 7.40328L7.82088 2.27101ZM17.4167 15.0399C17.4167 15.6701 17.1664 16.2744 16.721 16.72C16.2756 17.1656 15.6716 17.416 15.0417 17.416H3.95833C3.32844 17.416 2.72435 17.1656 2.27895 16.72C1.83356 16.2744 1.58333 15.6701 1.58333 15.0399V9.26452C1.58413 9.11078 1.59977 8.95747 1.63004 8.80674L6.70146 13.8804C7.4462 14.6182 8.45192 15.0321 9.5 15.0321C10.5481 15.0321 11.5538 14.6182 12.2985 13.8804L17.37 8.80674C17.4002 8.95747 17.4159 9.11078 17.4167 9.26452V15.0399Z" fill="#1DBFFF"/>
</svg>
