<svg width="115" height="100" viewBox="0 0 115 100" fill="none" xmlns="http://www.w3.org/2000/svg">
<g id="Group" opacity="0.1">
<g id="Group_2">
<path id="Vector" d="M68.4894 80.1438C65.6533 81.3331 64.464 84.7181 65.7448 87.4628L70.2277 96.8859C71.5085 99.5382 74.619 100.728 77.3637 99.5382C85.1401 96.2446 91.8186 91.9447 97.1249 86.7299C103.621 80.6012 108.012 73.5567 110.391 65.7803C112.769 57.9115 114.05 47.2084 114.05 33.5768V5.49017C114.05 2.47109 111.58 0.000938416 108.561 0.000938416H72.6063C69.5872 0.000938416 67.1171 2.47109 67.1171 5.49017V41.4447C67.1171 44.4647 69.5872 46.9339 72.6063 46.9339H89.8059C89.623 56.175 87.4273 63.5846 83.4018 69.1662C80.1083 73.6473 75.168 77.3068 68.4894 80.1438Z" fill="#1DBFFF"/>
<path id="Vector_2" d="M3.89924 80.1439C1.06313 81.3332 -0.125286 84.7182 1.15462 87.4629L5.6375 96.7936C6.91832 99.4468 10.0289 100.636 12.7735 99.4468C20.4584 96.1532 27.0464 91.8533 32.4433 86.73C38.9398 80.5089 43.4217 73.4644 45.8013 65.688C48.18 58.004 49.3684 47.299 49.3684 33.5759V5.48936C49.3684 2.47028 46.8983 0.00012207 43.8792 0.00012207H7.92468C4.9056 0.00012207 2.43544 2.47028 2.43544 5.48936V41.4438C2.43544 44.4638 4.9056 46.9331 7.92468 46.9331H25.2158C25.0328 56.1742 22.8362 63.5838 18.8117 69.1654C15.5181 73.6474 10.5778 77.3069 3.89924 80.1439Z" fill="#1DBFFF"/>
</g>
</g>
</svg>
