<svg width="70" height="70" viewBox="0 0 70 70" fill="none" xmlns="http://www.w3.org/2000/svg">
<g id="icon">
<rect id="bg" width="70" height="70" fill="#002656"/>
<g id="Group 9">
<path id="Vector" d="M23.8652 47.9799H13.9054C13.4055 47.9799 13 47.5745 13 47.0744V43.8753C13 43.3753 13.4055 42.9698 13.9054 42.9698H23.8652C24.3652 42.9698 24.7706 43.3753 24.7706 43.8753V47.0744C24.7706 47.5745 24.3652 47.9799 23.8652 47.9799Z" stroke="white" stroke-miterlimit="10" stroke-linecap="round" stroke-linejoin="round"/>
<path id="Vector_2" d="M23.8652 52.99H13.9054C13.4055 52.99 13 52.5845 13 52.0846V48.8853C13 48.3853 13.4055 47.9799 13.9054 47.9799H23.8652C24.3652 47.9799 24.7706 48.3853 24.7706 48.8853V52.0846C24.7706 52.5845 24.3652 52.99 23.8652 52.99Z" stroke="white" stroke-miterlimit="10" stroke-linecap="round" stroke-linejoin="round"/>
<path id="Vector_3" d="M18.0445 58H13.9054C13.4055 58 13 57.5945 13 57.0946V53.8954C13 53.3953 13.4055 52.99 13.9054 52.99H23.8652C24.3653 52.99 24.7706 53.3953 24.7706 53.8954V57.0946C24.7706 57.5945 24.3653 58 23.8652 58H21.1273" stroke="white" stroke-miterlimit="10" stroke-linecap="round" stroke-linejoin="round"/>
<path id="Vector_4" d="M18.9758 42.2455V37.8396H52.0241V42.2455" stroke="white" stroke-miterlimit="10" stroke-linecap="round" stroke-linejoin="round"/>
<path id="Vector_5" d="M35.5 42.9698V34.1872" stroke="white" stroke-miterlimit="10" stroke-linecap="round" stroke-linejoin="round"/>
<path id="Vector_6" d="M41.2947 24.6348C41.2947 27.8352 38.7004 30.4296 35.4999 30.4296C33.5635 30.4296 31.849 29.4798 30.7968 28.0207" stroke="white" stroke-miterlimit="10" stroke-linecap="round" stroke-linejoin="round"/>
<path id="Vector_7" d="M29.7052 24.6348C29.7052 21.4343 32.2995 18.84 35.5 18.84C37.4057 18.84 39.0966 19.7599 40.1527 21.18" stroke="white" stroke-miterlimit="10" stroke-linecap="round" stroke-linejoin="round"/>
<path id="Vector_8" d="M40.4319 19.286L40.3588 21.4816L38.1632 21.5547" stroke="white" stroke-miterlimit="10" stroke-linecap="round" stroke-linejoin="round"/>
<path id="Vector_9" d="M30.5681 29.9835L30.6412 27.7879L32.8368 27.7149" stroke="white" stroke-miterlimit="10" stroke-linecap="round" stroke-linejoin="round"/>
<path id="Vector_10" d="M40.4798 47.9799H30.5201C30.0201 47.9799 29.6146 47.5745 29.6146 47.0744V43.8753C29.6146 43.3753 30.0201 42.9698 30.5201 42.9698H40.4798C40.9798 42.9698 41.3852 43.3753 41.3852 43.8753V47.0744C41.3852 47.5745 40.9798 47.9799 40.4798 47.9799Z" stroke="white" stroke-miterlimit="10" stroke-linecap="round" stroke-linejoin="round"/>
<path id="Vector_11" d="M40.4798 52.99H30.5201C30.0201 52.99 29.6146 52.5845 29.6146 52.0846V48.8853C29.6146 48.3853 30.0201 47.9799 30.5201 47.9799H40.4798C40.9798 47.9799 41.3852 48.3853 41.3852 48.8853V52.0846C41.3852 52.5845 40.9798 52.99 40.4798 52.99Z" stroke="white" stroke-miterlimit="10" stroke-linecap="round" stroke-linejoin="round"/>
<path id="Vector_12" d="M40.4798 58H30.5201C30.0201 58 29.6146 57.5945 29.6146 57.0946V53.8954C29.6146 53.3953 30.0201 52.99 30.5201 52.99H40.4798C40.9798 52.99 41.3852 53.3953 41.3852 53.8954V57.0946C41.3852 57.5945 40.9798 58 40.4798 58Z" stroke="white" stroke-miterlimit="10" stroke-linecap="round" stroke-linejoin="round"/>
<path id="Vector_13" d="M32.014 45.0975V46.0029" stroke="white" stroke-miterlimit="10" stroke-linecap="round" stroke-linejoin="round"/>
<path id="Vector_14" d="M32.014 50.0322V50.9376" stroke="white" stroke-miterlimit="10" stroke-linecap="round" stroke-linejoin="round"/>
<path id="Vector_15" d="M32.014 54.9668V55.8722" stroke="white" stroke-miterlimit="10" stroke-linecap="round" stroke-linejoin="round"/>
<path id="Vector_16" d="M56.5696 42.9698H57.0946C57.5945 42.9698 58 43.3753 58 43.8753V47.0744C58 47.5745 57.5945 47.9799 57.0946 47.9799H47.1348C46.6347 47.9799 46.2294 47.5745 46.2294 47.0744V43.8753C46.2294 43.3753 46.6347 42.9698 47.1348 42.9698H53.6317" stroke="white" stroke-miterlimit="10" stroke-linecap="round" stroke-linejoin="round"/>
<path id="Vector_17" d="M57.0946 52.99H47.1348C46.6348 52.99 46.2294 52.5845 46.2294 52.0846V48.8853C46.2294 48.3853 46.6348 47.9799 47.1348 47.9799H57.0946C57.5945 47.9799 58 48.3853 58 48.8853V52.0846C58 52.5845 57.5945 52.99 57.0946 52.99Z" stroke="white" stroke-miterlimit="10" stroke-linecap="round" stroke-linejoin="round"/>
<path id="Vector_18" d="M57.0946 58H47.1348C46.6348 58 46.2294 57.5945 46.2294 57.0946V53.8954C46.2294 53.3953 46.6348 52.99 47.1348 52.99H57.0946C57.5945 52.99 58 53.3953 58 53.8954V57.0946C58 57.5945 57.5945 58 57.0946 58Z" stroke="white" stroke-miterlimit="10" stroke-linecap="round" stroke-linejoin="round"/>
<path id="Vector_19" d="M48.6288 45.0975V46.0029" stroke="white" stroke-miterlimit="10" stroke-linecap="round" stroke-linejoin="round"/>
<path id="Vector_20" d="M48.6288 50.0322V50.9376" stroke="white" stroke-miterlimit="10" stroke-linecap="round" stroke-linejoin="round"/>
<path id="Vector_21" d="M48.6288 54.9668V55.8722" stroke="white" stroke-miterlimit="10" stroke-linecap="round" stroke-linejoin="round"/>
<path id="Vector_22" d="M41.0211 14.9369C39.5073 13.7247 37.5881 13 35.4999 13C30.6106 13 26.6472 16.9729 26.6472 21.8737C26.6472 21.9087 26.6474 21.9436 26.6478 21.9783C26.6525 22.3758 26.3324 22.7007 25.9357 22.7004H25.928C22.7081 22.7004 20.1068 25.3548 20.1828 28.5995C20.2533 31.6113 22.8467 34.182 25.852 34.2209C27.0925 34.237 28.2438 33.8588 29.1898 33.2038C29.3094 33.121 29.4605 33.0966 29.5989 33.1414C31.2676 33.6816 33.3031 33.9988 35.4999 33.9988C37.6967 33.9988 39.7322 33.6816 41.4009 33.1414C41.5394 33.0966 41.6904 33.121 41.81 33.2038C42.756 33.8588 43.9074 34.237 45.1478 34.2209C48.1531 34.182 50.7465 31.6113 50.8171 28.5995C50.893 25.3548 48.2917 22.7004 45.0718 22.7004H45.0641C44.6675 22.7007 44.3473 22.3758 44.352 21.9783C44.3525 21.9436 44.3527 21.9087 44.3527 21.8737C44.3527 20.1056 43.8367 18.4584 42.9476 17.0747" stroke="white" stroke-miterlimit="10" stroke-linecap="round" stroke-linejoin="round"/>
</g>
</g>
</svg>
