<svg width="70" height="70" viewBox="0 0 70 70" fill="none" xmlns="http://www.w3.org/2000/svg">
<g id="icon">
<rect id="bg" width="70" height="70" fill="#002656"/>
<g id="Group">
<path id="Vector" d="M33.6119 46.3864L30.4431 43.3784C30.2937 43.2364 30.2067 43.0409 30.2014 42.8348C30.1961 42.6287 30.2729 42.429 30.4148 42.2795C30.4851 42.2055 30.5692 42.1461 30.6624 42.1046C30.7557 42.0632 30.8562 42.0405 30.9582 42.0378C31.0602 42.0352 31.1617 42.0527 31.2569 42.0893C31.3522 42.1259 31.4393 42.1809 31.5133 42.2511L34.0105 44.6221L38.5237 37.8104C38.7609 37.4526 39.2433 37.3547 39.6007 37.5918C39.6858 37.6481 39.759 37.7207 39.816 37.8053C39.8731 37.8899 39.9129 37.985 39.9332 38.085C39.9535 38.185 39.9539 38.2881 39.9343 38.3882C39.9148 38.4884 39.8757 38.5838 39.8193 38.6688L34.7948 46.2525C34.537 46.641 33.9527 46.7139 33.6119 46.3864Z" fill="white"/>
<path id="Vector_2" d="M34.1331 57.9048C22.6045 52.52 20.4942 40.8096 20.1299 37.3304C20.0462 36.5267 20.4877 35.7734 21.2289 35.4565C23.4954 34.4872 25.0208 32.3574 25.2103 29.8983C25.2709 29.1057 25.9141 28.5043 26.7054 28.4995L42.1716 28.4088H42.1801C42.956 28.4088 43.6149 29.0095 43.6821 29.7804C43.8966 32.2385 45.4452 34.3532 47.7226 35.2987C48.4714 35.6091 48.9243 36.3582 48.8498 37.1625C48.5264 40.6456 46.5565 52.3876 35.0891 57.8996C34.8143 58.0316 34.4083 58.0335 34.1331 57.9048ZM26.7567 30.0533C26.5106 33.0767 24.6295 35.6925 21.84 36.8856C21.7291 36.933 21.6631 37.0467 21.6756 37.1685C22.016 40.4231 23.9523 51.3833 34.6022 56.409C45.1914 51.2591 46.9997 40.277 47.302 37.0188C47.3134 36.8966 47.243 36.782 47.1268 36.7335C44.3269 35.5715 42.4189 32.9799 42.1381 29.963L26.7567 30.0533Z" fill="white"/>
<path id="Vector_3" d="M33.9777 54.7155C30.5018 52.8153 27.7236 50.0666 25.7685 46.4568C24.1462 43.4617 23.4302 40.5282 23.1149 38.5947C23.0296 38.0702 23.2676 37.5541 23.7216 37.2802C25.5911 36.1521 26.9438 34.3733 27.5306 32.2711C27.6848 31.7178 28.1936 31.3288 28.7667 31.3256L40.1431 31.2589C40.7186 31.2593 41.2294 31.6381 41.3905 32.1898C42.002 34.2847 43.3753 36.0477 45.2582 37.1539C45.7151 37.4226 45.9591 37.9354 45.8799 38.4607C45.5877 40.3979 44.906 43.339 43.3186 46.3536C41.406 49.9861 38.6602 52.7671 35.2073 54.7082C34.8791 54.8927 34.4083 54.9512 33.9777 54.7155ZM24.6775 38.5167C24.9871 40.3311 25.6635 43 27.1347 45.717C28.9188 49.0107 31.4245 51.5533 34.5834 53.2766C37.7222 51.516 40.198 48.9439 41.9433 45.6295C43.3829 42.8952 44.0277 40.2189 44.3158 38.4017C42.2257 37.1235 40.6866 35.1508 39.9552 32.8142L28.9722 32.8786C28.2688 35.2234 26.7526 37.2142 24.6774 38.5167H24.6775Z" fill="white"/>
<path id="Vector_4" d="M52.5344 47.5816H48.8644C48.7623 47.5816 48.6612 47.5616 48.5669 47.5225C48.4726 47.4835 48.387 47.4263 48.3148 47.3541C48.2426 47.2819 48.1854 47.1962 48.1463 47.1019C48.1073 47.0076 48.0872 46.9066 48.0873 46.8045C48.0873 46.5984 48.1691 46.4007 48.3149 46.255C48.4606 46.1093 48.6583 46.0274 48.8644 46.0274H52.5344C56.373 46.0274 59.4956 42.9048 59.4956 39.0663C59.4956 35.2282 56.373 32.0813 52.5344 32.1053C51.6469 32.1109 51.5692 31.5281 51.5611 30.2908C51.506 21.6141 44.5017 14.5542 35.8249 14.5542C29.4891 14.5542 23.5483 18.5915 21.2053 24.4569C21.0839 24.7609 20.7529 24.9357 20.0996 24.9361C14.2848 24.9397 9.55419 29.6672 9.55419 35.4816C9.55419 41.2963 14.2847 46.0273 20.0996 46.0273C20.3057 46.0273 20.5033 46.1092 20.6491 46.2549C20.7948 46.4006 20.8767 46.5983 20.8767 46.8044C20.8767 47.0105 20.7948 47.2082 20.6491 47.3539C20.5033 47.4996 20.3057 47.5815 20.0996 47.5815C13.428 47.5816 8 42.1537 8 35.4817C8 28.8533 13.3575 23.4525 19.9701 23.3828C23.6973 14.419 32.2993 13 35.8249 13C45.3588 13 53.1157 20.7568 53.1157 30.2908C53.1157 30.3838 53.1145 30.477 53.1132 30.5706C57.5399 30.8686 61.0498 34.5651 61.0498 39.0662C61.0498 43.7616 57.2299 47.5815 52.5344 47.5815V47.5816Z" fill="white"/>
</g>
</g>
</svg>
