<svg width="25" height="25" viewBox="0 0 25 25" fill="none" xmlns="http://www.w3.org/2000/svg">
<g id="Group">
<g id="Group_2">
<path id="Vector" fill-rule="evenodd" clip-rule="evenodd" d="M16.2126 3.07215C14.2527 2.19886 12.063 1.98251 9.97003 2.45534C7.8771 2.92818 5.99308 4.06488 4.59895 5.69593C3.20482 7.32697 2.37526 9.36497 2.23399 11.506C2.09272 13.647 2.64732 15.7763 3.81506 17.5764C4.9828 19.3765 6.70113 20.7509 8.71379 21.4946C10.7264 22.2383 12.9256 22.3116 14.9833 21.7034C17.0409 21.0952 18.8469 19.8381 20.1318 18.1197C21.4167 16.4013 22.1117 14.3136 22.1131 12.1679V11.1507C22.1131 10.8575 22.2296 10.5763 22.437 10.369C22.6443 10.1616 22.9255 10.0451 23.2187 10.0451C23.512 10.0451 23.7932 10.1616 24.0005 10.369C24.2079 10.5763 24.3243 10.8575 24.3243 11.1507V12.1679C24.3229 14.1273 23.8481 16.0573 22.9404 17.7937C22.0327 19.5302 20.719 21.0217 19.111 22.1413C17.5029 23.2608 15.6483 23.9754 13.7048 24.2242C11.7612 24.4729 9.78637 24.2485 7.94824 23.5699C6.41864 23.005 5.01826 22.1382 3.83039 21.0212C2.64252 19.9042 1.6914 18.5597 1.03361 17.0676C0.37582 15.5756 0.0247823 13.9666 0.00137528 12.3361C-0.0220318 10.7057 0.28267 9.08725 0.897359 7.57696C1.51205 6.06668 2.42417 4.69542 3.57949 3.54475C4.73481 2.39407 6.10972 1.48747 7.62247 0.878871C9.13522 0.270266 10.7549 -0.0279163 12.3852 0.00205468C14.0155 0.0320256 15.6232 0.389538 17.1125 1.05333C17.2452 1.11242 17.3649 1.19706 17.4648 1.30241C17.5647 1.40776 17.6429 1.53176 17.6949 1.66733C17.7469 1.80289 17.7717 1.94738 17.7678 2.09252C17.764 2.23767 17.7316 2.38064 17.6725 2.51327C17.6134 2.6459 17.5288 2.7656 17.4234 2.86552C17.3181 2.96544 17.1941 3.04363 17.0585 3.09563C16.923 3.14763 16.7785 3.17242 16.6333 3.16858C16.4882 3.16474 16.3452 3.13124 16.2126 3.07215Z" fill="#1DBFFF"/>
<path id="Vector_2" fill-rule="evenodd" clip-rule="evenodd" d="M24.0004 2.54148C24.2077 2.74881 24.3241 3.02997 24.3241 3.32313C24.3241 3.6163 24.2077 3.89746 24.0004 4.10479L12.9444 15.1718C12.7371 15.3791 12.4559 15.4955 12.1628 15.4955C11.8696 15.4955 11.5885 15.3791 11.3811 15.1718L8.06433 11.855C7.95874 11.753 7.87451 11.631 7.81657 11.4962C7.75862 11.3613 7.72812 11.2162 7.72685 11.0694C7.72557 10.9226 7.75355 10.777 7.80914 10.6411C7.86473 10.5053 7.94682 10.3818 8.05063 10.278C8.15444 10.1742 8.27788 10.0921 8.41375 10.0365C8.54963 9.98092 8.69521 9.95295 8.84201 9.95423C8.98881 9.9555 9.13389 9.986 9.26877 10.0439C9.40366 10.1019 9.52566 10.1861 9.62765 10.2917L12.1628 12.8257L22.4371 2.54148C22.6444 2.33421 22.9256 2.21777 23.2187 2.21777C23.5119 2.21777 23.7931 2.33421 24.0004 2.54148Z" fill="#1DBFFF"/>
</g>
</g>
</svg>
