<svg width="19" height="19" viewBox="0 0 19 19" fill="none" xmlns="http://www.w3.org/2000/svg">
<path id="Vector" d="M14.6818 0H6.04545C5.2062 0.00101205 4.38546 0.226183 3.68359 0.647978C2.98172 1.06977 2.42916 1.66991 2.09345 2.375H0.863636C0.634586 2.375 0.414916 2.45841 0.252953 2.60687C0.09099 2.75534 0 2.9567 0 3.16667C0 3.37663 0.09099 3.57799 0.252953 3.72646C0.414916 3.87493 0.634586 3.95833 0.863636 3.95833H1.72727V5.54167H0.863636C0.634586 5.54167 0.414916 5.62507 0.252953 5.77354C0.09099 5.92201 0 6.12337 0 6.33333C0 6.5433 0.09099 6.74466 0.252953 6.89313C0.414916 7.04159 0.634586 7.125 0.863636 7.125H1.72727V8.70833H0.863636C0.634586 8.70833 0.414916 8.79174 0.252953 8.94021C0.09099 9.08867 0 9.29004 0 9.5C0 9.70996 0.09099 9.91133 0.252953 10.0598C0.414916 10.2083 0.634586 10.2917 0.863636 10.2917H1.72727V11.875H0.863636C0.634586 11.875 0.414916 11.9584 0.252953 12.1069C0.09099 12.2553 0 12.4567 0 12.6667C0 12.8766 0.09099 13.078 0.252953 13.2265C0.414916 13.3749 0.634586 13.4583 0.863636 13.4583H1.72727V15.0417H0.863636C0.634586 15.0417 0.414916 15.1251 0.252953 15.2735C0.09099 15.422 0 15.6234 0 15.8333C0 16.0433 0.09099 16.2447 0.252953 16.3931C0.414916 16.5416 0.634586 16.625 0.863636 16.625H2.09345C2.42916 17.3301 2.98172 17.9302 3.68359 18.352C4.38546 18.7738 5.2062 18.999 6.04545 19H14.6818C15.8267 18.9987 16.9242 18.5813 17.7337 17.8392C18.5432 17.0972 18.9986 16.0911 19 15.0417V3.95833C18.9986 2.9089 18.5432 1.90282 17.7337 1.16076C16.9242 0.418698 15.8267 0.00125705 14.6818 0V0ZM17.2727 15.0417C17.2727 15.6716 16.9998 16.2756 16.5139 16.721C16.028 17.1664 15.369 17.4167 14.6818 17.4167H6.04545C5.3583 17.4167 4.6993 17.1664 4.21341 16.721C3.72752 16.2756 3.45455 15.6716 3.45455 15.0417V3.95833C3.45455 3.32844 3.72752 2.72435 4.21341 2.27895C4.6993 1.83356 5.3583 1.58333 6.04545 1.58333H14.6818C15.369 1.58333 16.028 1.83356 16.5139 2.27895C16.9998 2.72435 17.2727 3.32844 17.2727 3.95833V15.0417ZM10.3636 9.5C11.0508 9.5 11.7098 9.24978 12.1957 8.80438C12.6816 8.35898 12.9545 7.75489 12.9545 7.125C12.9545 6.49511 12.6816 5.89102 12.1957 5.44562C11.7098 5.00022 11.0508 4.75 10.3636 4.75C9.67649 4.75 9.01748 5.00022 8.53159 5.44562C8.0457 5.89102 7.77273 6.49511 7.77273 7.125C7.77273 7.75489 8.0457 8.35898 8.53159 8.80438C9.01748 9.24978 9.67649 9.5 10.3636 9.5ZM14.6818 14.25C14.6818 14.46 14.5908 14.6613 14.4289 14.8098C14.2669 14.9583 14.0472 15.0417 13.8182 15.0417C13.5891 15.0417 13.3695 14.9583 13.2075 14.8098C13.0455 14.6613 12.9545 14.46 12.9545 14.25C12.9545 13.6201 12.6816 13.016 12.1957 12.5706C11.7098 12.1252 11.0508 11.875 10.3636 11.875C9.67649 11.875 9.01748 12.1252 8.53159 12.5706C8.0457 13.016 7.77273 13.6201 7.77273 14.25C7.77273 14.46 7.68174 14.6613 7.51977 14.8098C7.35781 14.9583 7.13814 15.0417 6.90909 15.0417C6.68004 15.0417 6.46037 14.9583 6.29841 14.8098C6.13644 14.6613 6.04545 14.46 6.04545 14.25C6.22768 9.01867 14.5013 9.02025 14.6818 14.25Z" fill="#1DBFFF"/>
</svg>
