<svg width="19" height="19" viewBox="0 0 19 19" fill="none" xmlns="http://www.w3.org/2000/svg">
<path id="Vector" d="M10.2775 0.794236C10.2775 0.583927 10.361 0.382232 10.5097 0.233522C10.6584 0.0848111 10.8601 0.00126635 11.0704 0.00126635C13.1728 0.00357515 15.1883 0.839764 16.6749 2.32637C18.1615 3.81297 18.9977 5.82858 19 7.93096C19 8.14127 18.9165 8.34296 18.7677 8.49167C18.619 8.64038 18.4173 8.72393 18.207 8.72393C17.9967 8.72393 17.795 8.64038 17.6463 8.49167C17.4976 8.34296 17.4141 8.14127 17.4141 7.93096C17.4122 6.24907 16.7432 4.63661 15.554 3.44733C14.3647 2.25806 12.7523 1.58909 11.0704 1.5872C10.8601 1.5872 10.6584 1.50366 10.5097 1.35495C10.361 1.20624 10.2775 1.00454 10.2775 0.794236ZM11.0704 4.75908C11.9116 4.75908 12.7184 5.09326 13.3132 5.6881C13.9081 6.28295 14.2423 7.08973 14.2423 7.93096C14.2423 8.14127 14.3258 8.34296 14.4745 8.49167C14.6232 8.64038 14.8249 8.72393 15.0352 8.72393C15.2455 8.72393 15.4472 8.64038 15.5959 8.49167C15.7446 8.34296 15.8282 8.14127 15.8282 7.93096C15.8269 6.66949 15.3252 5.46006 14.4333 4.56807C13.5413 3.67608 12.3319 3.1744 11.0704 3.17314C10.8601 3.17314 10.6584 3.25669 10.5097 3.4054C10.361 3.55411 10.2775 3.7558 10.2775 3.96611C10.2775 4.17642 10.361 4.37812 10.5097 4.52683C10.6584 4.67554 10.8601 4.75908 11.0704 4.75908ZM18.2808 13.2748C18.7403 13.7356 18.9984 14.3598 18.9984 15.0106C18.9984 15.6614 18.7403 16.2856 18.2808 16.7464L17.5592 17.5782C11.0649 23.7959 -4.73878 7.99598 1.38286 1.48095L2.29476 0.687978C2.75608 0.24128 3.37471 -0.00583146 4.01683 0.000104521C4.65894 0.0060405 5.27291 0.264547 5.72589 0.719697C5.75047 0.744279 7.21982 2.65296 7.21982 2.65296C7.65581 3.111 7.89852 3.71944 7.89748 4.35182C7.89645 4.98419 7.65176 5.59184 7.21427 6.04845L6.29602 7.20301C6.80419 8.43775 7.55133 9.55991 8.49451 10.505C9.43769 11.4501 10.5583 12.1995 11.792 12.7102L12.9537 11.7864C13.4104 11.3492 14.0179 11.1048 14.6501 11.1039C15.2822 11.103 15.8905 11.3457 16.3483 11.7816C16.3483 11.7816 18.2562 13.2502 18.2808 13.2748ZM17.1897 14.4278C17.1897 14.4278 15.2921 12.9679 15.2675 12.9433C15.1042 12.7813 14.8835 12.6905 14.6534 12.6905C14.4234 12.6905 14.2026 12.7813 14.0393 12.9433C14.0178 12.9655 12.4185 14.2398 12.4185 14.2398C12.3107 14.3256 12.1824 14.3818 12.0463 14.403C11.9101 14.4241 11.7709 14.4094 11.6421 14.3604C10.0439 13.7653 8.59222 12.8337 7.38542 11.6286C6.17861 10.4236 5.24488 8.97326 4.64746 7.37588C4.59449 7.2454 4.57722 7.10317 4.59743 6.9638C4.61764 6.82444 4.67459 6.69297 4.76244 6.58291C4.76244 6.58291 6.03673 4.9827 6.05814 4.96208C6.22011 4.79872 6.31099 4.57798 6.31099 4.34793C6.31099 4.11787 6.22011 3.89714 6.05814 3.73377C6.03355 3.70998 4.57372 1.81082 4.57372 1.81082C4.40791 1.66215 4.19152 1.58252 3.96889 1.58827C3.74626 1.59402 3.53427 1.68471 3.37635 1.84175L2.46445 2.63472C-2.00942 8.01422 11.6858 20.9499 16.3999 16.495L17.1223 15.6624C17.2916 15.5056 17.3932 15.2891 17.4058 15.0587C17.4184 14.8283 17.3409 14.6021 17.1897 14.4278Z" fill="#1DBFFF"/>
</svg>
