<svg width="100" height="20" viewBox="0 0 100 20" fill="none" xmlns="http://www.w3.org/2000/svg">
<g id="Group 1000002343">
<path id="Star 17" d="M89.4199 1.76697C89.6011 1.38741 90.1413 1.38741 90.3224 1.76697L92.398 6.11653C92.4708 6.26929 92.6161 6.37479 92.7839 6.39691L97.5619 7.02675C97.9789 7.08171 98.1458 7.59555 97.8408 7.88509L94.3455 11.2031C94.2227 11.3196 94.1673 11.4903 94.1981 11.6568L95.0756 16.3956C95.1521 16.8091 94.7151 17.1267 94.3454 16.9261L90.1097 14.6272C89.9609 14.5464 89.7814 14.5464 89.6327 14.6272L85.397 16.9261C85.0273 17.1267 84.5902 16.8091 84.6668 16.3956L85.5443 11.6568C85.5751 11.4903 85.5196 11.3196 85.3969 11.2031L81.9016 7.88509C81.5966 7.59555 81.7635 7.08171 82.1805 7.02675L86.9585 6.39691C87.1263 6.37479 87.2715 6.26929 87.3444 6.11653L89.4199 1.76697Z" fill="url(#paint0_linear_64_347)"/>
<path id="Star 14" d="M9.10836 1.72827C9.29186 1.35698 9.82136 1.35698 10.0049 1.72827L12.1758 6.12086C12.25 6.27112 12.3946 6.37417 12.5609 6.39533L17.5284 7.02757C17.9507 7.08131 18.117 7.60453 17.8031 7.89217L14.1927 11.2013C14.0648 11.3185 14.0068 11.4937 14.0394 11.6641L14.9492 16.4076C15.028 16.8187 14.5969 17.1389 14.226 16.9446L9.78869 14.6193C9.64334 14.5432 9.46988 14.5432 9.32453 14.6193L4.88719 16.9446C4.51636 17.1389 4.0852 16.8187 4.16406 16.4076L5.07378 11.6641C5.10646 11.4937 5.04847 11.3185 4.92056 11.2013L1.31009 7.89217C0.996263 7.60454 1.16251 7.08131 1.5848 7.02757L6.55235 6.39533C6.71861 6.37417 6.86321 6.27112 6.93746 6.12086L9.10836 1.72827Z" fill="url(#paint1_linear_64_347)"/>
<path id="Star 15" d="M29.1018 1.76697C29.2829 1.38741 29.8232 1.38741 30.0043 1.76697L32.0798 6.11653C32.1527 6.26929 32.2979 6.37479 32.4657 6.39691L37.2437 7.02675C37.6607 7.08171 37.8276 7.59555 37.5226 7.88509L34.0273 11.2031C33.9046 11.3196 33.8491 11.4903 33.8799 11.6568L34.7574 16.3956C34.834 16.8091 34.3969 17.1267 34.0272 16.9261L29.7915 14.6272C29.6428 14.5464 29.4633 14.5464 29.3145 14.6272L25.0788 16.9261C24.7092 17.1267 24.2721 16.8091 24.3486 16.3956L25.2261 11.6568C25.2569 11.4903 25.2015 11.3196 25.0787 11.2031L21.5834 7.88509C21.2784 7.59555 21.4453 7.08171 21.8623 7.02675L26.6403 6.39691C26.8081 6.37479 26.9534 6.26929 27.0263 6.11653L29.1018 1.76697Z" fill="url(#paint2_linear_64_347)"/>
<path id="Star 16" d="M69.4267 1.72827C69.6102 1.35698 70.1397 1.35698 70.3232 1.72827L72.4941 6.12086C72.5684 6.27112 72.713 6.37417 72.8792 6.39533L77.8468 7.02757C78.2691 7.08131 78.4353 7.60453 78.1215 7.89217L74.511 11.2013C74.3831 11.3185 74.3251 11.4937 74.3578 11.6641L75.2675 16.4076C75.3464 16.8187 74.9152 17.1389 74.5444 16.9446L70.107 14.6193C69.9617 14.5432 69.7882 14.5432 69.6429 14.6193L65.2055 16.9446C64.8347 17.1389 64.4036 16.8187 64.4824 16.4076L65.3921 11.6641C65.4248 11.4937 65.3668 11.3185 65.2389 11.2013L61.6284 7.89217C61.3146 7.60454 61.4809 7.08131 61.9032 7.02757L66.8707 6.39533C67.037 6.37417 67.1816 6.27112 67.2558 6.12086L69.4267 1.72827Z" fill="url(#paint3_linear_64_347)"/>
<path id="Star 18" d="M49.1017 1.72827C49.2852 1.35698 49.8147 1.35698 49.9982 1.72827L52.1691 6.12086C52.2434 6.27112 52.388 6.37417 52.5542 6.39533L57.5218 7.02757C57.9441 7.08131 58.1103 7.60453 57.7965 7.89217L54.186 11.2013C54.0581 11.3185 54.0001 11.4937 54.0328 11.6641L54.9425 16.4076C55.0214 16.8187 54.5902 17.1389 54.2194 16.9446L49.782 14.6193C49.6367 14.5432 49.4632 14.5432 49.3179 14.6193L44.8805 16.9446C44.5097 17.1389 44.0786 16.8187 44.1574 16.4076L45.0671 11.6641C45.0998 11.4937 45.0418 11.3185 44.9139 11.2013L41.3034 7.89217C40.9896 7.60454 41.1559 7.08131 41.5781 7.02757L46.5457 6.39533C46.712 6.37417 46.8566 6.27112 46.9308 6.12086L49.1017 1.72827Z" fill="url(#paint4_linear_64_347)"/>
</g>
<defs>
<linearGradient id="paint0_linear_64_347" x1="89.8712" y1="0.821289" x2="89.8712" y2="19.1789" gradientUnits="userSpaceOnUse">
<stop offset="0.0985536" stop-color="#FFA364"/>
<stop offset="0.788912" stop-color="#FFC112"/>
</linearGradient>
<linearGradient id="paint1_linear_64_347" x1="9.55661" y1="0.821289" x2="9.55661" y2="19.1789" gradientUnits="userSpaceOnUse">
<stop offset="0.0985536" stop-color="#FFA364"/>
<stop offset="0.788912" stop-color="#FFC112"/>
</linearGradient>
<linearGradient id="paint2_linear_64_347" x1="29.553" y1="0.821289" x2="29.553" y2="19.1789" gradientUnits="userSpaceOnUse">
<stop offset="0.0985536" stop-color="#FFA364"/>
<stop offset="0.788912" stop-color="#FFC112"/>
</linearGradient>
<linearGradient id="paint3_linear_64_347" x1="69.875" y1="0.821289" x2="69.875" y2="19.1789" gradientUnits="userSpaceOnUse">
<stop offset="0.0985536" stop-color="#FFA364"/>
<stop offset="0.788912" stop-color="#FFC112"/>
</linearGradient>
<linearGradient id="paint4_linear_64_347" x1="49.55" y1="0.821289" x2="49.55" y2="19.1789" gradientUnits="userSpaceOnUse">
<stop offset="0.0985536" stop-color="#FFA364"/>
<stop offset="0.788912" stop-color="#FFC112"/>
</linearGradient>
</defs>
</svg>
