<svg width="70" height="70" viewBox="0 0 70 70" fill="none" xmlns="http://www.w3.org/2000/svg">
<g id="icon">
<rect id="bg" width="70" height="70" fill="#002656"/>
<g id="Group">
<path id="Vector" d="M24.5585 22.7394H24.8486C25.2028 22.7394 25.5427 22.8824 25.7928 23.1369L29.1523 26.555M21.4437 22.7394H19.622M19.6224 25.456H24.2962L25.9799 27.1691" stroke="white" stroke-miterlimit="10" stroke-linecap="round" stroke-linejoin="round"/>
<path id="Vector_2" d="M18.0574 26.1911C19.1937 26.1911 20.1149 25.2538 20.1149 24.0977C20.1149 22.9416 19.1937 22.0044 18.0574 22.0044C16.9211 22.0044 16 22.9416 16 24.0977C16 25.2538 16.9211 26.1911 18.0574 26.1911Z" stroke="white" stroke-miterlimit="10" stroke-linecap="round" stroke-linejoin="round"/>
<path id="Vector_3" d="M40.8476 26.5553L44.207 23.1372C44.4575 22.8827 44.7971 22.7397 45.1512 22.7397H50.3776M44.0201 27.1691L45.7038 25.456H50.3776" stroke="white" stroke-miterlimit="10" stroke-linecap="round" stroke-linejoin="round"/>
<path id="Vector_4" d="M51.9425 26.1911C53.0788 26.1911 54 25.2538 54 24.0977C54 22.9416 53.0788 22.0044 51.9425 22.0044C50.8062 22.0044 49.8851 22.9416 49.8851 24.0977C49.8851 25.2538 50.8062 26.1911 51.9425 26.1911Z" stroke="white" stroke-miterlimit="10" stroke-linecap="round" stroke-linejoin="round"/>
<path id="Vector_5" d="M27.5078 17.1794L30.8139 20.5422V26.2338M29.3963 15.2581L33.0921 19.0192C33.343 19.2737 33.4837 19.6196 33.4837 19.9799V25.7176" stroke="white" stroke-miterlimit="10" stroke-linecap="round" stroke-linejoin="round"/>
<path id="Vector_6" d="M27.346 17.1867C28.4823 17.1867 29.4034 16.2494 29.4034 15.0933C29.4034 13.9372 28.4823 13 27.346 13C26.2097 13 25.2886 13.9372 25.2886 15.0933C25.2886 16.2494 26.2097 17.1867 27.346 17.1867Z" stroke="white" stroke-miterlimit="10" stroke-linecap="round" stroke-linejoin="round"/>
<path id="Vector_7" d="M36.5163 25.7176V19.9799C36.5163 19.6196 36.657 19.2737 36.9079 19.0192L40.6037 15.2581M39.1861 26.2338V20.5422L42.4921 17.1794" stroke="white" stroke-miterlimit="10" stroke-linecap="round" stroke-linejoin="round"/>
<path id="Vector_8" d="M42.6541 17.1867C43.7904 17.1867 44.7115 16.2494 44.7115 15.0933C44.7115 13.9372 43.7904 13 42.6541 13C41.5178 13 40.5966 13.9372 40.5966 15.0933C40.5966 16.2494 41.5178 17.1867 42.6541 17.1867Z" stroke="white" stroke-miterlimit="10" stroke-linecap="round" stroke-linejoin="round"/>
<path id="Vector_9" d="M19.6223 45.5439H24.2961L26.3803 43.4233M19.6223 48.2602H24.8487C25.2029 48.2602 25.5429 48.1171 25.793 47.8627L28.42 45.1899" stroke="white" stroke-miterlimit="10" stroke-linecap="round" stroke-linejoin="round"/>
<path id="Vector_10" d="M18.0574 48.9955C19.1937 48.9955 20.1149 48.0583 20.1149 46.9022C20.1149 45.7461 19.1937 44.8088 18.0574 44.8088C16.9211 44.8088 16 45.7461 16 46.9022C16 48.0583 16.9211 48.9955 18.0574 48.9955Z" stroke="white" stroke-miterlimit="10" stroke-linecap="round" stroke-linejoin="round"/>
<path id="Vector_11" d="M43.6205 43.4243L45.7037 45.544H50.3776M41.5808 45.1909L44.2069 47.8628C44.4575 48.1174 44.7971 48.2603 45.1512 48.2603H50.3776" stroke="white" stroke-miterlimit="10" stroke-linecap="round" stroke-linejoin="round"/>
<path id="Vector_12" d="M51.9425 48.9955C53.0788 48.9955 54 48.0583 54 46.9022C54 45.7461 53.0788 44.8088 51.9425 44.8088C50.8062 44.8088 49.8851 45.7461 49.8851 46.9022C49.8851 48.0583 50.8062 48.9955 51.9425 48.9955Z" stroke="white" stroke-miterlimit="10" stroke-linecap="round" stroke-linejoin="round"/>
<path id="Vector_13" d="M33.4836 47.5169V51.02C33.4836 51.3804 33.343 51.7263 33.092 51.9807L29.3962 55.7419M30.8139 46.5317V50.4577L27.5078 53.8205" stroke="white" stroke-miterlimit="10" stroke-linecap="round" stroke-linejoin="round"/>
<path id="Vector_14" d="M27.346 58C28.4823 58 29.4034 57.0628 29.4034 55.9067C29.4034 54.7506 28.4823 53.8134 27.346 53.8134C26.2097 53.8134 25.2886 54.7506 25.2886 55.9067C25.2886 57.0628 26.2097 58 27.346 58Z" stroke="white" stroke-miterlimit="10" stroke-linecap="round" stroke-linejoin="round"/>
<path id="Vector_15" d="M39.1861 46.5326V50.4577L42.4921 53.8204M40.6039 55.7415L39.4194 54.5363M36.5164 47.5172V51.0204C36.5164 51.3799 36.6571 51.7258 36.908 51.9802L37.2907 52.3695" stroke="white" stroke-miterlimit="10" stroke-linecap="round" stroke-linejoin="round"/>
<path id="Vector_16" d="M42.6541 58C43.7904 58 44.7115 57.0628 44.7115 55.9067C44.7115 54.7506 43.7904 53.8134 42.6541 53.8134C41.5178 53.8134 40.5966 54.7506 40.5966 55.9067C40.5966 57.0628 41.5178 58 42.6541 58Z" stroke="white" stroke-miterlimit="10" stroke-linecap="round" stroke-linejoin="round"/>
<path id="Vector_17" d="M35.5242 47.7871C40.7319 46.4836 43.2168 44.1382 44.3676 42.4877C44.9406 41.6659 45.2929 40.7065 45.4088 39.7059L46.5408 29.9375C46.6864 28.6812 45.8526 27.5242 44.6311 27.2878L36.1677 25.6498C35.3963 25.5005 34.6042 25.5005 33.8328 25.6498L25.3693 27.2878C24.1479 27.5242 23.314 28.6812 23.4596 29.9375L24.5916 39.7059C24.7076 40.7065 25.0599 41.6659 25.6328 42.4877C26.7837 44.1383 29.2686 46.4836 34.4763 47.7871C34.8202 47.8732 35.1804 47.8732 35.5242 47.7871Z" stroke="white" stroke-miterlimit="10" stroke-linecap="round" stroke-linejoin="round"/>
<path id="Vector_18" d="M35.0002 45.1207C30.4942 43.9681 28.5627 41.9952 27.8103 40.9161C27.5041 40.477 27.3079 39.9485 27.243 39.3879L26.1439 29.903L34.3317 28.3184C34.5521 28.2758 34.7759 28.2543 35.0002 28.2543C35.224 28.2543 35.4489 28.2758 35.6687 28.3184L43.8566 29.903L42.7574 39.3879C42.6925 39.9485 42.4963 40.477 42.1902 40.9161C41.4377 41.9953 39.5062 43.9681 35.0002 45.1207Z" stroke="white" stroke-miterlimit="10" stroke-linecap="round" stroke-linejoin="round"/>
<path id="Vector_19" d="M37.5328 32.8705L37.8345 32.3762C38.2234 31.7396 39.0466 31.544 39.6731 31.9397C40.2987 32.3354 40.4909 33.173 40.102 33.8104L36.229 40.1504C36.0066 40.5135 35.6301 40.7489 35.2118 40.7861C35.1727 40.7897 35.1335 40.7915 35.0953 40.7915C34.7179 40.7915 34.3557 40.6285 34.1012 40.3406L31.0861 36.9188C30.594 36.3602 30.6394 35.5018 31.1885 35.0011C31.7375 34.5004 32.5812 34.5475 33.0733 35.1052L34.9004 37.1787L35.9078 35.5299" stroke="white" stroke-miterlimit="10" stroke-linecap="round" stroke-linejoin="round"/>
</g>
</g>
</svg>
