<svg width="70" height="70" viewBox="0 0 70 70" fill="none" xmlns="http://www.w3.org/2000/svg">
<g id="icon">
<rect id="bg" width="70" height="70" fill="#002656"/>
<g id="Group 8">
<path id="Vector" d="M49.6058 54.9377L56.2711 49.9739C56.6017 49.7276 56.8385 49.3754 56.9421 48.9757C57.0457 48.5759 57.0099 48.1527 56.8407 47.7761L50.7288 34.1749C50.6223 33.9377 50.466 33.7263 50.2707 33.5551C50.0753 33.384 49.8455 33.257 49.5968 33.1829L45.266 31.8926" stroke="white" stroke-miterlimit="10" stroke-linecap="round" stroke-linejoin="round"/>
<path id="Vector_2" d="M24.7342 31.8926L20.4033 33.1829C20.1547 33.257 19.9248 33.384 19.7295 33.5552C19.5342 33.7264 19.3779 33.9377 19.2713 34.1749L13.1594 47.7762C12.9902 48.1528 12.9545 48.576 13.0581 48.9757C13.1617 49.3754 13.3985 49.7276 13.7292 49.9739L20.3944 54.9377" stroke="white" stroke-miterlimit="10" stroke-linecap="round" stroke-linejoin="round"/>
<path id="Vector_3" d="M23.4554 24.9364L22.7742 27.9327C22.7142 28.1966 22.7139 28.4706 22.7735 28.7346C22.833 28.9986 22.9508 29.2458 23.1182 29.4581L27.9437 36.7249H42.0558L46.8813 29.4581C47.0487 29.2458 47.1665 28.9986 47.226 28.7346C47.2856 28.4706 47.2853 28.1966 47.2253 27.9327L45.1656 18.8733C45.0794 18.4942 44.8738 18.153 44.5792 17.9001L39.3773 13.4351C39.0501 13.1543 38.6336 13 38.2029 13H31.7965C31.3658 13 30.9494 13.1544 30.6222 13.4351L25.4203 17.9001C25.1257 18.153 24.9201 18.4942 24.8339 18.8733L24.2542 21.4231" stroke="white" stroke-miterlimit="10" stroke-linecap="round" stroke-linejoin="round"/>
<path id="Vector_4" d="M26.1906 28.7776L32.6733 26.5852C34.1842 26.0743 35.8206 26.0744 37.3314 26.5856L43.8096 28.7776" stroke="white" stroke-miterlimit="10" stroke-linecap="round" stroke-linejoin="round"/>
<path id="Vector_5" d="M46.0424 54.9371H49.6047V37.6308C49.6047 37.1308 49.2005 36.7254 48.7018 36.7254H21.2972C20.7986 36.7254 20.3943 37.1308 20.3943 37.6308V54.9371H42.433" stroke="white" stroke-miterlimit="10" stroke-linecap="round" stroke-linejoin="round"/>
<path id="Vector_6" d="M49.6047 54.9371V57.0946C49.6047 57.5946 49.2005 58 48.7018 58H21.2972C20.7985 58 20.3943 57.5946 20.3943 57.0946V54.9371" stroke="white" stroke-miterlimit="10" stroke-linecap="round" stroke-linejoin="round"/>
<path id="Vector_7" d="M40.0522 45.9166C40.0522 43.1213 37.7813 40.8563 34.9833 40.8652C32.2399 40.8739 29.9832 43.1231 29.9477 45.8659C29.9234 47.7486 31.253 48.5791 32.7462 48.9249V49.8037C32.7462 50.3523 33.191 50.797 33.7397 50.797H36.2599C36.8086 50.797 37.2534 50.3523 37.2534 49.8037V48.9249C38.7332 48.5822 40.0522 47.7636 40.0522 45.9166Z" stroke="white" stroke-miterlimit="10" stroke-linecap="round" stroke-linejoin="round"/>
<path id="Vector_8" d="M32.7068 45.1015L33.8494 46.2439" stroke="white" stroke-miterlimit="10" stroke-linecap="round" stroke-linejoin="round"/>
<path id="Vector_9" d="M37.2935 45.1015L36.1509 46.2439" stroke="white" stroke-miterlimit="10" stroke-linecap="round" stroke-linejoin="round"/>
<path id="Vector_10" d="M37.3314 26.5858C35.8205 26.0746 34.1842 26.0744 32.6733 26.5854L28.4366 28.0181V31.4259C28.4367 32.1563 28.5991 32.8776 28.9123 33.5371C29.2254 34.1966 29.6813 34.7777 30.2467 35.2382C33.1074 37.2201 36.8925 37.2202 39.7533 35.2383C40.3187 34.7778 40.7746 34.1966 41.0877 33.5371C41.4008 32.8775 41.5633 32.1563 41.5633 31.4259V28.0177L37.3314 26.5858Z" stroke="white" stroke-miterlimit="10" stroke-linecap="round" stroke-linejoin="round"/>
</g>
</g>
</svg>
