<svg width="70" height="70" viewBox="0 0 70 70" fill="none" xmlns="http://www.w3.org/2000/svg">
<g id="icon">
<rect id="bg" width="70" height="70" fill="#002656"/>
<g id="Group">
<path id="Vector" d="M20.7922 13H49.6958C50.5202 13 51.1888 13.673 51.1888 14.5027V24.2532M12.7334 20.1776V14.5027C12.7334 13.673 13.401 13 14.2264 13H17.0598M13.2655 47.4217V44.3042C13.2655 44.0765 13.3554 43.8581 13.5154 43.697C13.6754 43.536 13.8924 43.4455 14.1187 43.4455H25.8966C26.1229 43.4455 26.3398 43.536 26.4998 43.697C26.6598 43.8581 26.7497 44.0765 26.7497 44.3042V47.4217C26.7497 47.6495 26.6598 47.8679 26.4998 48.0289C26.3398 48.1899 26.1229 48.2804 25.8966 48.2804H14.1187C13.8924 48.2804 13.6754 48.1899 13.5154 48.0289C13.3554 47.8679 13.2655 47.6495 13.2655 47.4217Z" stroke="white" stroke-miterlimit="10" stroke-linecap="round" stroke-linejoin="round"/>
<path id="Vector_2" d="M54.9212 39.3695V25.9706C54.9212 25.0217 54.1577 24.2532 53.215 24.2532H21.9024C21.7313 24.2532 21.5627 24.2117 21.4109 24.1323C21.259 24.0529 21.1284 23.9379 21.03 23.797L19.0103 20.9075C18.6914 20.4503 18.17 20.1776 17.6154 20.1776H10.7062C9.76354 20.1776 9 20.9462 9 21.895V49.7833C9 51.3247 10.2413 52.5741 11.7726 52.5741H44.0973M17.2212 17.0126H46.7003M46.7004 20.797H18.926" stroke="white" stroke-miterlimit="10" stroke-linecap="round" stroke-linejoin="round"/>
<path id="Vector_3" d="M59.8406 54.5716C61.1895 52.9348 62 50.832 62 48.5393C62 43.3141 57.792 39.0786 52.6008 39.0786C47.4095 39.0786 43.2015 43.3141 43.2015 48.5393C43.2015 53.7645 47.4095 58 52.6008 58C54.1652 58 55.6411 57.6157 56.9389 56.9341" stroke="white" stroke-miterlimit="10" stroke-linecap="round" stroke-linejoin="round"/>
<path id="Vector_4" d="M47.6484 48.4802C47.6794 45.7721 49.9028 43.5535 52.6008 43.5535C55.318 43.5535 57.5542 45.8043 57.5542 48.5393C57.5542 51.2742 55.318 53.5251 52.6008 53.5251C51.6506 53.5251 50.7197 53.2503 49.9209 52.7329" stroke="white" stroke-miterlimit="10" stroke-linecap="round" stroke-linejoin="round"/>
<path id="Vector_5" d="M49.617 47.5591L47.7962 48.4651C47.7536 48.4863 47.7052 48.4926 47.6587 48.483C47.6121 48.4733 47.5701 48.4483 47.5393 48.4119L46.2612 46.9011" stroke="white" stroke-miterlimit="10" stroke-linecap="round" stroke-linejoin="round"/>
</g>
</g>
</svg>
